<svg xmlns="http://www.w3.org/2000/svg" viewBox="0 0 500 500"><defs><style>.cls-1{fill:#95b1c6;opacity:0.47;}.cls-2{fill:#a5cec1;}.cls-3{fill:#798949;}.cls-4{fill:#f2e1c4;}.cls-5{fill:#fcf2e0;}.cls-6{fill:none;stroke:#e5802e;stroke-linecap:round;stroke-linejoin:round;stroke-width:17px;}.cls-7{fill:#386082;}.cls-8{fill:#813e48;}.cls-9{fill:#e5802e;}.cls-10{fill:#e5a72c;}.cls-11{fill:#4c2e34;}.cls-12{fill:#c45f0c;}.cls-13{fill:#2d6d59;}</style></defs><g id="house"><path class="cls-1" d="M440.08,192.53c-61.45-62.18-264.82-111.92-332.85-90-21.35,6.88-47.18,22-62.91,50.47C8.12,218.47,56,321,122.59,374c82,65.15,181.33,46.43,207.76,40.24,28.45-6.67,115.19-27,137.52-95.1C486.07,263.58,453.89,206.51,440.08,192.53Z"/><path class="cls-2" d="M261.38,304c80.79,0,152.67,12.88,198.68,32.89-30.16,54-103.91,71.25-129.71,77.3-26.43,6.19-125.8,24.91-207.76-40.24A249.14,249.14,0,0,1,80,330.11C125.8,314,190.13,304,261.38,304Z"/><g id="house-2" data-name="house"><path class="cls-3" d="M390.47,142.73c-28.21,2.46-61.35,68.7-78.18,121.47-6.44,20.19-9.62,60.44,9,76.38,21.8,18.63,118.15,12,138.61,1.85,13.47-6.7,27.67-25.91,19.85-48.76C458.09,230.3,414.46,140.63,390.47,142.73Z"/><path class="cls-4" d="M334.66,245.79c1.82-.5.69,11.42,12.08,28,1-3.31,3-7.91,4.11-13.24,2.06-10.09-1.77-17.59-.9-17.82s4.95,7.93,6.12,18c1,8.22.08,18.31-2.51,21.7,1.52,1.7,3.16,3.43,5,5.19,11.24,10.92,18.85,13.42,23,14.91,1.59-7.52,3.15-15.45,4.46-23.54l.3-1.93c-4-3.24-11.28-17.58-16.39-29.4-10.05-23.23-3.43-51.86-2.16-51.9s-.31,13.13,3.78,30.24c2.15,9,8,20.73,17,32.28,4.07-49.85-6.7-86.78-5-87.09,1-.16,5.94,15.4,10.71,37.62a52.8,52.8,0,0,0,5.81-17.05c1.91-13.16.65-24.53,1.26-24.63s5.6,12.05,4.34,26.56c-1,11.41-5.56,21.88-9,26.85,2.06,10.9,3.94,22.84,5.24,35,3.87-2.85,9.86-5.84,15.73-10.81,13.08-11.08,15-25.88,16.38-25.37s-1,16.31-9.9,32c-5.17,9.1-14.87,19.67-20.59,23.31,1.27,17.27,2.12,30.57,2.56,40.91a112.87,112.87,0,0,0,15-7.87c-1.91-3.88-3.8-14.86-2.08-22,2.77-11.55,11.1-19.71,12.54-18.92s-6.1,9.55-4,21.47c.85,4.91,2.53,9.5,3.27,12.5,17.69-14.35,22.56-29.65,24-28.77,1.68,1-2.75,21.63-17.75,38.68-1,1.12-20.32,23.12-30.71,25-.33,8.78-1.49,13.11-3.43,16-9.95.51-20.2.63-30,.27-.77-6.22,1.88-18.52,5.27-33.87-8.62-2.73-25.36-16.07-33.79-30.73C332.85,267.35,332.64,246.34,334.66,245.79Z"/><rect class="cls-5" x="169.88" y="224" width="152" height="128" rx="12.13" transform="translate(491.76 576) rotate(-180)"/><path class="cls-5" d="M318.88,228c-14-19-63-74-72-74-10,0-59,51-74,74"/><path id="roof" class="cls-6" d="M343.88,244c-1-1-97-102.19-97-102.19l-94,95.19"/><path class="cls-7" d="M280,252.6H263.9V240a3.51,3.51,0,0,1,3.51-3.51H280Z"/><path class="cls-7" d="M280,255.43v16.08H267.41A3.51,3.51,0,0,1,263.9,268V255.43Z"/><path class="cls-7" d="M282.81,252.6V236.52h12.56a3.51,3.51,0,0,1,3.51,3.51V252.6Z"/><path class="cls-7" d="M282.81,255.43h16.07V268a3.51,3.51,0,0,1-3.51,3.51H282.81Z"/><path class="cls-7" d="M202.2,253.07H186.13V240.5a3.51,3.51,0,0,1,3.51-3.51H202.2Z"/><path class="cls-7" d="M202.2,255.9V272H189.64a3.51,3.51,0,0,1-3.51-3.51V255.9Z"/><path class="cls-7" d="M205,253.07V237h12.57a3.51,3.51,0,0,1,3.5,3.51v12.57Z"/><path class="cls-7" d="M205,255.9h16.07v12.57a3.51,3.51,0,0,1-3.5,3.51H205Z"/></g><path class="cls-8" d="M219.88,299h44a0,0,0,0,1,0,0v31a22,22,0,0,1-22,22h0a22,22,0,0,1-22-22V299A0,0,0,0,1,219.88,299Z" transform="translate(483.76 651) rotate(-180)"/><circle class="cls-9" cx="228.88" cy="332" r="3"/><path id="leaves" class="cls-10" d="M357.76,264.37c15.42.66,39.8,24.39,49.06,41.26,1.32,2.4,16,28.21,9.32,49.49-4.51,14.36-15,17.27-20.15,19.85-7.54,3.81-54.51,5.85-69.38-1.34C320.86,370.85,308.9,360.76,310,344c.87-13.91,6.94-18,13.06-32.66C328.08,299.22,339,263.57,357.76,264.37Z"/><path class="cls-11" d="M326.47,332.31c1.27-.49,7.21,14.61,17.61,25.6,5.34,5.63,10.52,7.67,14,9.89a187.2,187.2,0,0,1-2.41-25.63c-3.93-3.23-10.44-14.54-11.94-27-1.56-13.07,2.88-23.51,3.5-23.42s-3.48,11.6,2.7,29.34c2.15,6.16,4,8.06,5.71,10.64,0-1.86.11-3.73.2-5.6.93-17.81,7.46-46.76,9.29-46.61,1.35.1-4.16,17.06-4.17,41,3.7-3.39,9.9-8.9,13.27-14.88,6.15-10.92,3.7-18.14,4.61-18.09.68,0,1.18,2.87,1.36,4.94.2,2.41.49,10.12-6.6,20.78-3.68,5.52-9.19,11.62-12.52,13.4.16,4.15.51,8.46,1.09,12.89a114.32,114.32,0,0,0,4,18.9c2-1.3,7.41-3.26,15-10-1.74-3.36-2.69-9.83-1.67-16.11,1.47-9,5.58-16,6-15.79s-2.4,5.4-2.94,15.6a35.79,35.79,0,0,0,1.95,13.16l.63-.63c10.62-10.83,13.63-24.44,14.48-24.13s-1.15,12.48-8.8,25c-4.8,7.88-18.23,18.87-22.14,20.05a94.92,94.92,0,0,0,6,12.41c-4.48.24-9.3.35-14.15.31-.29-.83-.58-1.78-.86-2.85-4.65-1.05-19.48-9.88-27.14-23.13C326.88,342.52,325.54,332.67,326.47,332.31Z"/><path class="cls-12" d="M328.93,333.27a39.62,39.62,0,0,0-20.44-4.81c-3.74.21-16.73,1.49-25.57,12.22-2.08,2.51-8.26,10.75-7.52,20.8.64,8.77,4.87,12,8,13.07,5,1.7,42.37,4.82,55.17.95,1.91-.58,13.17-6.34,8.17-21.41C343,342.79,333.34,335.67,328.93,333.27Z"/><path id="leaves-2" data-name="leaves" class="cls-13" d="M135,234.35c-16.44.7-42.44,26-52.32,44-1.41,2.56-17.08,30.09-10,52.78,4.82,15.32,16,18.42,21.5,21.17,8,4.06,58.14,6.24,74-1.43,6.14-3,18.9-13.73,17.78-31.59-.93-14.83-7.4-19.19-13.94-34.83C166.66,271.52,155,233.49,135,234.35Z"/><path class="cls-4" d="M168.37,306.81c-1.35-.53-7.68,15.58-18.78,27.3-5.69,6-11.21,8.19-14.94,10.56a201.9,201.9,0,0,0,2.56-27.34c4.2-3.45,11.14-15.51,12.73-28.76,1.68-13.93-3.06-25.07-3.72-25s3.71,12.37-2.88,31.29c-2.29,6.57-4.28,8.59-6.09,11.35q-.08-3-.22-6c-1-19-7.95-49.87-9.91-49.71-1.44.11,4.44,18.19,4.45,43.74-3.94-3.62-10.56-9.49-14.16-15.87-6.55-11.64-3.94-19.35-4.91-19.3-.72,0-1.26,3.06-1.45,5.28-.21,2.57-.52,10.79,7,22.16,3.92,5.89,9.8,12.39,13.35,14.29-.17,4.42-.54,9-1.16,13.75A121.55,121.55,0,0,1,126,334.76c-2.11-1.39-7.9-3.48-16-10.66,1.86-3.58,2.88-10.49,1.78-17.18-1.56-9.64-6-17.07-6.4-16.84s2.57,5.75,3.14,16.63a38.29,38.29,0,0,1-2.08,14l-.67-.68C94.43,308.53,91.22,294,90.31,294.34s1.23,13.32,9.39,26.7c5.12,8.4,19.44,20.13,23.61,21.38a100.42,100.42,0,0,1-6.43,13.24c4.77.25,9.91.38,15.08.33.31-.88.62-1.9.93-3,5-1.12,20.77-10.54,28.94-24.67C167.94,317.71,169.37,307.2,168.37,306.81Z"/></g></svg>
