<svg xmlns="http://www.w3.org/2000/svg" viewBox="0 0 500 500"><defs><style>.cls-1{fill:#a5cec1;}.cls-2{fill:none;stroke:#e5802e;stroke-linecap:round;stroke-linejoin:round;stroke-width:6px;}.cls-3{fill:#fff;}.cls-4{fill:#ffd6b5;}.cls-5{fill:#813e48;}.cls-6{fill:#386082;}.cls-7{fill:#f9bc93;}.cls-8{fill:#e5802e;}.cls-9{fill:#218169;}.cls-10{fill:#95b0c1;}.cls-11{fill:#7391a8;}</style></defs><g id="syg"><path class="cls-1" d="M374,99c-32-8.47-54-5-109,20-65.66,29.85-117,23-159,40S26.2,221.94,24,256c-3,46,2.87,72.41,27,105,63.42,85.68,229.39,95.72,323,20,63.2-51.13,75.65-127,77-136,3.63-24.38,9.86-66.07-16-103C431.6,137.18,411.15,108.86,374,99Z"/><g id="MAN"><path class="cls-2" d="M176,266.78a80.39,80.39,0,0,1-29.4-23.26"/><path class="cls-3" d="M238.48,410.6c0,1.59,0,3.18-.07,4.76C238.45,413.78,238.47,412.19,238.48,410.6Z"/><path class="cls-3" d="M238.4,401.11c0,1.44.06,2.89.07,4.34C238.46,404,238.43,402.55,238.4,401.11Z"/><path class="cls-3" d="M238.41,415.36v0Z"/><path class="cls-3" d="M238.41,415.41c0,1.61-.1,3.21-.18,4.8C238.31,418.62,238.36,417,238.41,415.41Z"/><path class="cls-3" d="M238.47,405.45c0,.13,0,.26,0,.39C238.47,405.71,238.47,405.58,238.47,405.45Z"/><path class="cls-3" d="M237.26,378.58h0c0-.08,0-.16,0-.23S237.25,378.5,237.26,378.58Z"/><path class="cls-3" d="M237.26,378.58c0,.59.08,1.19.13,1.8C237.34,379.77,237.3,379.17,237.26,378.58Z"/><path class="cls-3" d="M237.8,431.36C163.79,436.51,89,412.34,51,361c-12.92-17.44-20.6-33.12-24.49-51,7.84-12.51,27.1-7.82,41.91-18,11.17-7.7,8.78-13.32,19-21,18.24-13.71,49.22-13.39,61,0,3.94,4.48,2.83,7.11,8,12,7.28,6.87,15.3,7.18,27,10,9.33,2.25,21.84,5.26,30,11,15.48,10.87,21.37,44.92,23,64,.25,2.91.56,6.51.86,10.58,0,.59.08,1.19.13,1.8v.19l.15,2.13-.15-2.13c0,.72.1,1.46.15,2.21.37,5.58.69,11.82.85,18.28C238.47,405.16,238.14,419.26,237.8,431.36Z"/><path class="cls-3" d="M238.48,410.44c0-1.54,0-3.07,0-4.6C238.49,407.37,238.49,408.9,238.48,410.44Z"/><path class="cls-3" d="M238.39,400.85c0,.08,0,.17,0,.26v-.05C238.4,401,238.39,400.91,238.39,400.85Z"/><path class="cls-3" d="M238.48,410.6v0Z"/><path class="cls-4" d="M77.4,212a4.2,4.2,0,0,1,1.66-1.45C70.8,198.19,57.94,176.24,66.4,154c9.51-25,39-32.07,47-34,5.47-1.31,37.39-11.61,57,8,15.22,15.21,19.72,76.86,9.27,105.24-.74-.93-1.34-1.42-1.69-1.24-3.69,1.84-3.94,5.61-6,9-6.6,10.83-29.33,13.92-44,4-10.57-7.15-13.5-19.58-15-26-4.52-19.2,2.71-33.95-3-37-2.91-1.55-8.51,0-10,3-3,6,2,48,7,63,2.11,6.34,8.52,13.11,18,19a57.52,57.52,0,0,0,26.77,8.33c.38,5.36.72,9.47.65,9.67-.58,1.72-8.59.76-23,7-16.92,7.33-39.06.55-44-11-2.33-5.47,1-7.78,1-27,0-6.49,0-11.14-1-17C82.55,220.27,75.3,215.49,77.4,212Z"/><path id="face" class="cls-4" d="M170.4,128c-19.61-19.61-51.53-9.31-57-8-8,1.93-37.49,9-47,34-8.46,22.24,4.4,44.19,12.66,56.55A4.2,4.2,0,0,0,77.4,212c-2.1,3.49,5.15,8.27,8,25,1,5.86,1,10.51,1,17,0,19.22-3.65,21.67-1,27,8.08,16.2,21.1,18,39.53,17.53,15.69-.39,26.89-11.81,27.47-13.53.16-.47-2-23-1.48-31.85A34.38,34.38,0,0,0,172.4,245C191.4,229,188.4,146,170.4,128Z"/><path id="hair" class="cls-5" d="M171.4,104c-7.46,2.75-13.51-3.13-24-7-17.68-6.53-34.49-2.36-44,0-10.49,2.61-27.76,6.89-39,22-14,18.87-9.81,42.74-8,53,2.05,11.55,8.37,24.7,21,51,7,14.59,8.4,22.33,11,22,3.58-.46,6-15,4-29-1-7-1-15-6-21s9.59-13.19,12-12c.58.28.53.8,2,4s3.24,5,4,5c4,0,4.3-4.07,5-9,1-7,2.89-22.66,14-31,8-6,22.4-3.13,32-4s15.29-3.38,21-7c9.07-5.73,12.16-15.37,13-18C194.08,108.44,179.74,100.93,171.4,104Z"/><path id="ear" class="cls-4" d="M99.4,184c-.82-2.88-1.83-12.65-5-17-4.87-6.7-14-8-20-2-5.08,5.08-4.92,11.88-3,17,2.45,6.5,7.6,10.78,15,13C96.4,198,101.4,191,99.4,184Z"/><circle class="cls-6" cx="117.31" cy="322.23" r="3.73"/><circle class="cls-6" cx="117.31" cy="346.03" r="3.73"/><circle class="cls-6" cx="117.31" cy="369.83" r="3.73"/><circle class="cls-6" cx="117.31" cy="393.23" r="3.73"/><path class="cls-7" d="M152.25,253c-.71-1.51-1.43-2.92-1.84-4.08-4.81-13.51-33.36-17.34-37-11-2.3,4,4.83,12.88,11,17,6.74,4.49,20.21,7.3,26.55,6.75-.13-3.35-.16-6.4,0-8.6Z"/><path class="cls-4" d="M152.41,252.9c-4,1-13,0-23-2-24-4.8-23.55-8.85-24-11-1.14-5.43,9-12.94,18-16,14.28-4.85,34.77-1.58,38,9C163.56,239.93,160.3,250.92,152.41,252.9Z"/></g><g id="WOMAN"><path class="cls-8" d="M281,165s24.8,1.45,18,23c-6,19,.94,34.79-14,46-16,12-24.68,36.19-5,60,38,46,86,46,126-8,16.85-22.76,23.93-57,24.71-68,3.64-51.37-32.28-85.57-36-89-27.56-25.38-68.64-37-101-26-5.27,1.79-25.93,9.73-30,24C260,140,260,161,281,165Z"/><path class="cls-4" d="M378.69,290c-2.41-6-.83-38.14.17-44,2.85-16.73,10.1-21.51,8-25a4.2,4.2,0,0,0-1.66-1.45c8.26-12.36,21.12-34.31,12.66-56.55-9.51-25-39-32.07-47-34-5.47-1.31-37.31-11.53-57,8-21.17,21-19.17,93-2.17,111,8.27,8.75,15,12,27,13,.51,8.85-1.79,30.55-2,31-7,15-28,13-45,28-.33.29-17,13.06-19,39-.73,9.43,4.69,69.26,19,65,9.25-5.49,22.39-7.26,37.31-7.24,23.69-8.39,45.84-20.28,65-35.76,23.54-19.05,40-41.53,51.55-62.71C408.26,304.82,384,303.32,378.69,290Z"/><path class="cls-9" d="M380.11,292.68C369.48,296.07,365,299,348.69,299c-19,0-25-5-31.86-7.94-.07.55-.12.89-.14.94-7,15-28,13-45,28-.33.29-17,13.06-19,39-.48,6.23-2.41,45.87.45,70.88C297.35,424.35,340.33,408.21,374,381c23.55-19.05,40-41.53,51.55-62.71C409.5,305.78,387.44,303.59,380.11,292.68Z"/><path class="cls-7" d="M318.6,269.9l.07.1c1.65,2,9.19,1.76,17.32-2,6.57-3,19-11,20.62-16,1.91-5.79-33.61-5-37.94,9C318.78,263.3,318.74,266.47,318.6,269.9Z"/><path id="bang" class="cls-8" d="M302.69,155s-6,6-11,8c-6.42,2.57-8,2-11,2-5.58,0-9.21-20.79-2-33,12.35-20.93,53.57-14.94,60-14,27.8,4,63.84,20.72,63,39-.54,11.55-15.62,20-24,23-14.05,5-31.07.31-44-4C309.69,168,302.69,157,302.69,155Z"/><path class="cls-8" d="M378.69,285.11c-4-3.85,2-89.44,2-89.44,9.62-42.8,24.62-46.67,31,1,3.73,27.85-8.19,92.07-27,91.36C382.82,287.92,380.94,287.28,378.69,285.11Z"/><path id="ear-2" data-name="ear" class="cls-4" d="M368.29,194c.75-2.64,1.68-11.61,4.59-15.6,4.47-6.14,12.85-7.34,18.35-1.83,4.67,4.66,4.52,10.9,2.76,15.6-2.24,6-7,9.89-13.77,11.93C371,206.81,366.45,200.39,368.29,194Z"/><path class="cls-4" d="M318.69,261c6,1,27.49-2,31-3,7-2,17-6,22-8,3.83-1.53-23.36-16.91-42-9-6.8,2.89-17,9.54-16,15C314.22,258.82,317.48,260.8,318.69,261Z"/></g><ellipse class="cls-10" cx="304.44" cy="361.75" rx="15.45" ry="15.63"/><ellipse class="cls-11" cx="304.44" cy="361.75" rx="6.97" ry="7.05"/><path class="cls-2" d="M84.16,178c-.72,38.3,17.79,71.78,47.09,84.89,18.49,8.27,36.38,6.25,45.86,4.34"/><path class="cls-2" d="M177.17,267.72c.27,7.71,1.93,42.27,31,69.65,39.23,37,92,25,96,24"/></g></svg>
