<svg xmlns="http://www.w3.org/2000/svg" viewBox="0 0 500 500"><defs><style>.cls-1{fill:#a5cec1;}.cls-2{fill:#173144;}.cls-3{fill:#ffd6b5;}.cls-4{fill:#e5a72c;}.cls-5{fill:#ff9632;}.cls-6{fill:#fff;}.cls-7{fill:#f9bc93;}.cls-8{fill:#e5802e;}</style></defs><g id="Marriage"><path class="cls-1" d="M73.81,192.53c61.44-62.18,264.81-111.92,332.84-90,21.35,6.88,47.18,22,62.91,50.47,36.2,65.44-11.69,168-78.27,220.92-82,65.15-181.33,46.43-207.76,40.24-28.44-6.67-115.19-27-137.52-95.1C27.81,263.58,60,206.51,73.81,192.53Z"/><g id="MAN"><path class="cls-2" d="M54,337.16a43.55,43.55,0,0,1,2.63,4.41c31.69,50.29,101.89,66.75,126.92,72.62a284,284,0,0,0,90.3,6c.3-6.38.31-13,.16-19.36.15,6.38.14,13-.16,19.36a345.63,345.63,0,0,0-.68-37.43c0-.75-.1-1.49-.15-2.21,0,.7.09,1.41.14,2.13-.05-.72-.1-1.43-.14-2.13l0-.19c-.05-.69-.1-1.37-.14-2,0,.66.09,1.34.14,2-.34-4.81-.69-9.05-1-12.38-1.64-19.08-7.53-53.13-23-64-8.17-5.74-20.68-8.75-30-11-11.7-2.82-19.73-3.13-27-10-5.17-4.89-4.06-7.52-8-12-11.78-13.39-42.77-13.71-61,0-10.22,7.68-13.64,17.43-26.65,22.36-17.65,6.7-36.44,7-43.44,22C49.76,322.13,50.67,332.47,54,337.16Z"/><path id="face" class="cls-3" d="M206,128c-19.61-19.61-51.54-9.31-57-8-8,1.93-37.49,9-47,34-8.46,22.24,4.39,44.19,12.66,56.55A4.13,4.13,0,0,0,113,212c-2.11,3.49,5.15,8.27,8,25,1,5.86,1,10.51,1,17,0,19.22-3.34,21.53-1,27,4.93,11.55,27.08,18.33,44,11,14.41-6.24,22.42-5.28,23-7,.16-.47-2-23-1.48-31.85A34.4,34.4,0,0,0,208,245C227,229,224,146,206,128Z"/><path id="hair" class="cls-4" d="M220,91c-3.91-.44-4.67,9.93-13,13-7.47,2.75-13.52-3.13-24-7-17.69-6.53-34.49-2.36-44,0-10.5,2.61-27.77,6.89-39,22-14,18.87-9.81,42.74-8,53,2,11.55,8.36,24.7,21,51,7,14.59,8.4,22.33,11,22,3.58-.46,6-15,4-29-1-7-1-15-6-21s9.58-13.19,12-12c.58.28.53.8,2,4s3.24,5,4,5c4,0,4.3-4.07,5-9,1-7,2.89-22.66,14-31,8-6,22.4-3.13,32-4s15.28-3.38,21-7c9.06-5.73,12.15-15.37,13-18C229.67,108.44,224.89,91.55,220,91Z"/><path id="ear" class="cls-3" d="M135,184c-.82-2.88-1.84-12.65-5-17-4.87-6.7-14-8-20-2-5.08,5.08-4.92,11.88-3,17,2.44,6.5,7.59,10.78,15,13C132,198,137,191,135,184Z"/><g id="tie"><path class="cls-5" d="M154,284c-3,0-17.83,13.36-17,24,.61,7.82,11,19,12,20,1.33,1.33,9,3,12,0,8.13-8.13,12.09-21.38,12-22C171.67,296.39,159,284,154,284Z"/><path class="cls-5" d="M169.4,410.72c-2-20.28-8.4-82.72-8.4-82.72H149s-5,52.5-6.6,74.49C152.33,406,161.6,408.69,169.4,410.72Z"/></g><path class="cls-6" d="M121,272c-1,0-11.58,11-21.58,19C97,293,131.16,309.72,138,312c3,1,16-24,16-28C154,282,123.24,272,121,272Z"/><path class="cls-6" d="M187,272c1,0,9,13,19,21,2.47,2-29.16,16.72-36,19-3,1-16-24-16-28C154,282,184.76,272,187,272Z"/><path class="cls-7" d="M187.84,253.08c-.71-1.5-1.43-2.92-1.84-4.08-4.81-13.51-33.36-17.34-37-11-2.3,4,4.83,12.89,11,17,6.74,4.49,20.21,7.3,26.55,6.75-.13-3.34-.16-6.4,0-8.6C187,253.14,187.4,253.11,187.84,253.08Z"/><path class="cls-3" d="M188,253c-4,1-13,0-23-2-24-4.79-23.55-8.85-24-11-1.14-5.43,9-12.94,18-16,14.28-4.84,34.77-1.58,38,9C199.15,240,195.89,251,188,253Z"/></g><g id="WOMAN"><path id="hair-2" data-name="hair" class="cls-8" d="M309,157c-3.63-.7-6.59-.9-10-2-11.19-3.61-19.14-18.09-19-29,.25-19.27,25.81-34.1,44-39,40.29-10.85,77.09,18.27,84,24,40.58,33.67,43.77,85.2,45,105,1.62,26.09,3.9,62.86-20,90-40.86,46.4-134.48,37.7-162-2-7.66-11.05-14.67-30.95-7-44,6.81-11.59,19.19-7.52,38-20,14.77-9.8,36.31-31.66,32-54C331.47,172.92,321.84,159.46,309,157Z"/><path class="cls-3" d="M450.58,305.45C447,295,411,296,405,281c-2.41-6-.83-38.14.17-44,2.85-16.73,10.1-21.51,8-25a4.13,4.13,0,0,0-1.66-1.45c8.27-12.36,21.12-34.31,12.66-56.55-9.51-25-39-32.07-47-34-5.47-1.31-37.31-11.53-57,8C299,149,301,221,318,239c8.27,8.75,15,12,27,13,.52,8.85-1.79,30.55-2,31-7,15-28,13-45,28-.33.29-17,13.06-19,39-.73,9.43,25.77,65.7,40.08,61.43,37.39-22.17,90.29-57.06,116.16-83.17A270.46,270.46,0,0,0,450.58,305.45Z"/><path class="cls-7" d="M344.92,260.9a.36.36,0,0,0,.07.1c1.64,2,9.19,1.76,17.32-2,6.56-3,19-11,20.62-16,1.91-5.79-33.62-5-37.94,9C345.1,254.3,345.05,257.47,344.92,260.9Z"/><path id="bang" class="cls-8" d="M329,146s-6,6-11,8c-6.42,2.57-8,2-11,2-5.58,0-9.21-20.79-2-33,12.36-20.93,53.57-14.94,60-14,27.8,4,63.85,20.72,63,39-.53,11.55-15.62,20-24,23-14.05,5-31.07.31-44-4C336,159,329,148,329,146Z"/><path class="cls-8" d="M405,281c-4-4,2-93,2-93,9.63-44.51,24.62-48.53,31,1,3.73,29-8.19,95.73-27,95C409.13,283.93,407.26,283.26,405,281Z"/><path class="cls-6" d="M396,170c-21.63-11.23-34.9-28.74-44-42-18.48-26.93-28.06-40.9-23-48,4.17-5.84,17.46-5.9,27-1,16.47,8.46,11.34,26.36,30,59,11.16,19.53,23.8,32,21,35C406.18,173.87,403.9,174.1,396,170Z"/><path id="ear-2" data-name="ear" class="cls-3" d="M394.6,185c.76-2.64,1.68-11.61,4.59-15.6,4.47-6.14,12.85-7.34,18.35-1.83,4.67,4.66,4.52,10.9,2.76,15.6-2.24,6-7,9.89-13.77,11.93C397.35,197.81,392.76,191.39,394.6,185Z"/><path id="dress" class="cls-6" d="M391.29,374c19.62-15.59,37.61-35.5,52.31-57.49.74-.14,1.47-.25,2.2-.36-15.67,2.2-33.43,12.74-64.8,13.9-54,2-86-12-92-9-4.2,2.1-7.36,9.05-10,24-2.39,13.56-1.61,56.36-.17,74.67C314.4,415.47,354.59,403.13,391.29,374Z"/><g id="necklace"><circle class="cls-6" cx="345" cy="286" r="5"/><circle class="cls-6" cx="356" cy="292" r="5"/><circle class="cls-6" cx="369" cy="294" r="5"/><circle class="cls-6" cx="382" cy="294" r="5"/><circle class="cls-6" cx="394" cy="290" r="5"/><circle class="cls-6" cx="405" cy="285" r="5"/></g><path class="cls-3" d="M345,252c6,1,27.5-2,31-3,7-2,17-6,22-8,3.83-1.53-23.36-16.91-42-9-6.8,2.89-17,9.54-16,15C340.53,249.82,343.79,251.8,345,252Z"/></g></g></svg>
