<svg xmlns="http://www.w3.org/2000/svg" viewBox="0 0 500 500"><defs><style>.cls-1{fill:#a5cec1;}.cls-2{fill:#173144;}.cls-3{fill:#ffd6b5;}.cls-4{fill:#e5802e;}.cls-5{fill:#fff;}.cls-6{fill:#e5a72c;}.cls-7{fill:#f9bc93;}.cls-8{fill:#7391a8;}</style></defs><g id="maternity"><path class="cls-1" d="M103.64,99c32-8.47,54-5,109,20,65.66,29.85,117,23,159,40s79.78,62.94,82,97c3,46-2.88,72.41-27,105-63.42,85.68-229.39,95.72-323,20-63.2-51.13-75.65-127-77-136-3.63-24.38-9.86-66.07,16-103C46,137.18,66.47,108.86,103.64,99Z"/><g id="MAN"><path class="cls-2" d="M239.14,410.6c0,1.59,0,3.18.07,4.76C239.17,413.78,239.15,412.19,239.14,410.6Z"/><path class="cls-2" d="M239.22,401.11c0,1.44-.06,2.89-.07,4.34C239.16,404,239.19,402.55,239.22,401.11Z"/><path class="cls-2" d="M239.21,415.36v0Z"/><path class="cls-2" d="M239.21,415.41q.06,2.41.18,4.8Q239.27,417.83,239.21,415.41Z"/><path class="cls-2" d="M239.15,405.45c0,.13,0,.26,0,.39C239.14,405.71,239.15,405.58,239.15,405.45Z"/><path class="cls-2" d="M240.36,378.58h0c0-.08,0-.16,0-.23S240.37,378.5,240.36,378.58Z"/><path class="cls-2" d="M240.36,378.58c0,.59-.08,1.19-.13,1.8C240.27,379.77,240.32,379.17,240.36,378.58Z"/><path class="cls-2" d="M239.82,431.36c74,5.15,148.82-19,186.82-70.36,12.91-17.44,20.59-33.12,24.49-51-7.84-12.51-27.1-7.82-41.92-18-11.17-7.7-8.77-13.32-19-21-18.23-13.71-49.21-13.39-61,0-3.93,4.48-2.82,7.11-8,12-7.27,6.87-15.29,7.18-27,10-9.32,2.25-21.83,5.26-30,11-15.47,10.87-21.36,44.92-23,64-.24,2.91-.55,6.51-.85,10.58,0,.59-.08,1.19-.13,1.8v.19q-.08,1.05-.15,2.13.08-1.08.15-2.13c-.05.72-.1,1.46-.15,2.21-.37,5.58-.69,11.82-.85,18.28C239.14,405.16,239.48,419.26,239.82,431.36Z"/><path class="cls-2" d="M239.14,410.44c0-1.54,0-3.07,0-4.6C239.13,407.37,239.13,408.9,239.14,410.44Z"/><path class="cls-2" d="M239.23,400.85a2.17,2.17,0,0,0,0,.26v-.05A1.41,1.41,0,0,1,239.23,400.85Z"/><path class="cls-2" d="M239.14,410.6v0Z"/><path class="cls-3" d="M400.21,212a4.09,4.09,0,0,0-1.65-1.45c8.26-12.36,21.12-34.31,12.65-56.55-9.5-25-39-32.07-47-34-5.46-1.31-37.38-11.61-57,8C292,143.21,287.5,204.86,298,233.24c.74-.93,1.34-1.42,1.69-1.24,3.69,1.84,3.94,5.61,6,9,6.59,10.83,29.33,13.92,44,4,10.57-7.15,13.5-19.58,15-26,4.52-19.2-2.71-33.95,3-37,2.91-1.55,8.51,0,10,3,3,6-2,48-7,63-2.11,6.34-8.52,13.11-18,19a57.52,57.52,0,0,1-26.77,8.33c-.38,5.36-.72,9.47-.66,9.67.59,1.72,8.6.76,23,7,16.92,7.33,39.07.55,44-11,2.34-5.47-1-7.78-1-27,0-6.49,0-11.14,1-17C395.06,220.27,402.32,215.49,400.21,212Z"/><path id="face" class="cls-3" d="M307.21,128c19.62-19.61,51.54-9.31,57-8,8,1.93,37.5,9,47,34,8.47,22.24-4.39,44.19-12.65,56.55a4.09,4.09,0,0,1,1.65,1.45c2.11,3.49-5.15,8.27-8,25-1,5.86-1,10.51-1,17,0,19.22,3.66,21.67,1,27-8.07,16.2-21.09,18-39.52,17.53C337,298.14,325.8,286.72,325.21,285c-.15-.47,2-23,1.49-31.85A34.43,34.43,0,0,1,305.21,245C286.21,229,289.21,146,307.21,128Z"/><path class="cls-4" d="M377.64,185c-1.49-3-9.51-6.14-9.51-2.85A141.58,141.58,0,0,1,364.64,219a57.23,57.23,0,0,1-15,26c-5.82,5.83-14.94,7.66-24.36,8.07A34.23,34.23,0,0,1,305.21,245c-2.94-2.48-5.35-6.56-7.26-11.76-3.48,4.4-10.13,19-9.31,24.76.66,8.53,9.26,10.63,14,13,.9.45,1.81.85,2.74,1.23.41.16.83.3,1.24.45s1,.39,1.57.57,1.14.33,1.72.49c.38.1.76.22,1.15.31.69.17,1.38.31,2.08.45l.83.17c.79.14,1.59.25,2.39.35l.55.07c.88.1,1.77.18,2.66.23l.3,0c1,.05,1.91.08,2.87.08h.12A57.49,57.49,0,0,0,352.64,267c9.48-5.89,15.89-12.66,18-19C375.64,233,380.64,191,377.64,185Z"/><path id="hair" class="cls-4" d="M306.21,104c7.47,2.75,13.52-3.13,24-7,17.69-6.53,34.5-2.36,44,0,10.5,2.61,27.77,6.89,39,22,14,18.87,9.82,42.74,8,53-2,11.55-8.36,24.7-21,51-7,14.59-8.39,22.33-11,22-3.57-.46-6-15-4-29,1-7,1-15,6-21s-9.58-13.19-12-12c-.57.28-.53.8-2,4s-3.24,5-4,5c-4,0-4.29-4.07-5-9-1-7-2.88-22.66-14-31-8-6-22.39-3.13-32-4s-15.28-3.38-21-7c-9.06-5.73-12.15-15.37-13-18C283.54,108.44,297.88,100.93,306.21,104Z"/><path id="ear" class="cls-3" d="M378.21,184c.83-2.88,1.84-12.65,5-17,4.87-6.7,14-8,20-2,5.09,5.08,4.92,11.88,3,17-2.44,6.5-7.59,10.78-15,13C381.21,198,376.21,191,378.21,184Z"/><circle class="cls-5" cx="360.31" cy="326.03" r="3.14"/><circle class="cls-5" cx="360.31" cy="346.03" r="3.14"/><circle class="cls-5" cx="360.31" cy="366.03" r="3.14"/></g><g id="WOMAN"><path class="cls-6" d="M226.64,165s-24.8,1.45-18,23c6,19-.94,34.79,14,46,16,12,24.67,36.19,5,60-38,46-86,46-126-8-16.85-22.76-23.93-57-24.71-68-3.64-51.37,32.28-85.57,36-89,27.56-25.38,68.64-37,101-26,5.27,1.79,25.93,9.73,30,24C247.64,140,247.64,161,226.64,165Z"/><path class="cls-3" d="M235.93,320c-17-15-38-13-45-28-.21-.45-2.51-22.15-2-31,12-1,18.73-4.25,27-13,17-18,19-90-2.17-111-19.69-19.53-51.53-9.31-57-8-8,1.93-37.49,9-47,34-8.46,22.24,4.4,44.19,12.66,56.55a4.2,4.2,0,0,0-1.66,1.45c-2.1,3.49,5.15,8.27,8,25,1,5.86,2.58,38,.17,44-6,15-36,15-53,34-4.27,4.68-7.19,10.88-9.1,17.84A201.29,201.29,0,0,0,103.64,381c20.21,16.34,43.78,28.68,69,37.14,25.23-2.25,49-2.66,63.32,5.86,14.31,4.26,19.73-55.57,19-65C252.94,333.06,236.26,320.29,235.93,320Z"/><path class="cls-4" d="M235.93,320c-17-15-38-13-45-28,0-.05-.07-.39-.14-.94C183.93,294,177.93,299,158.93,299c-16.27,0-20.8-2.93-31.42-6.32-8.33,12.4-35.66,13.52-51.58,31.32-4.27,4.68-7.19,10.88-9.1,17.84A201.29,201.29,0,0,0,103.64,381c20.21,16.34,43.78,28.68,69,37.14,25.23-2.25,49-2.66,63.32,5.86,14.31,4.26,19.73-55.57,19-65C252.94,333.06,236.26,320.29,235.93,320Z"/><path class="cls-7" d="M189,269.9l-.07.1c-1.65,2-9.2,1.76-17.32-2-6.57-3-19-11-20.62-16-1.91-5.79,33.61-5,37.94,9C188.84,263.3,188.88,266.47,189,269.9Z"/><path id="bang" class="cls-6" d="M204.93,155s6,6,11,8c6.42,2.57,8,2,11,2,5.58,0,9.21-20.79,2-33-12.36-20.93-53.57-14.94-60-14-27.8,4-63.85,20.72-63,39,.54,11.55,15.62,20,24,23,14,5,31.07.31,44-4C197.93,168,204.93,157,204.93,155Z"/><path class="cls-6" d="M128.93,285.11c4-3.85-2-89.44-2-89.44-9.62-42.8-24.62-46.67-31,1-3.73,27.85,8.19,92.07,27,91.36C124.8,287.92,126.68,287.28,128.93,285.11Z"/><path id="ear-2" data-name="ear" class="cls-3" d="M139.33,194c-.76-2.64-1.68-11.61-4.59-15.6-4.47-6.14-12.85-7.34-18.35-1.83-4.67,4.66-4.52,10.9-2.76,15.6,2.24,6,7,9.89,13.77,11.93C136.58,206.81,141.17,200.39,139.33,194Z"/><path class="cls-3" d="M188.93,261c-6,1-27.5-2-31-3-7-2-17-6-22-8-3.83-1.53,23.36-16.91,42-9,6.8,2.89,17,9.54,16,15C193.4,258.82,190.14,260.8,188.93,261Z"/></g><path class="cls-8" d="M250.8,431.9c12.69-13,18.69-28,20.71-33,10.58-26.44,5.53-48.89,2.31-65.56-3-15.44-6.92-21.49-12.13-25.13-10.57-7.38-25.69-4.39-34.95.29S217.11,318,208,326.12c-10,8.93-13.7,14.67-42.46,19.35-33,5.36-46,24.77-47.85,28.29a37.44,37.44,0,0,0-4.18,14.68C152.46,416.14,201.86,430.41,250.8,431.9Z"/><path class="cls-3" d="M273.65,332.5c-3-14.8-6.85-20.72-12-24.29-10.57-7.38-25.69-4.39-34.95.29-6.73,3.4-8.78,6.89-12.94,11.69-3.06,5.44-5.7,14.49-2.34,27.27.5,1.91,4.56,14.23,17.15,18.5,9,3.06,24.43-4.31,29.71-8.32,5.61-4.24,14.77-14.77,15.34-23.41C273.68,333.8,273.67,333.21,273.65,332.5Z"/></g></svg>
