<svg xmlns="http://www.w3.org/2000/svg" viewBox="0 0 500 500"><defs><style>.cls-1{fill:#a5cec1;}.cls-2{fill:#813e48;}.cls-3{fill:#ffd6b5;}.cls-4{fill:#ff9632;}.cls-5{fill:#f9c193;}.cls-6{fill:#f9bc93;}.cls-7{fill:#af7e5a;}.cls-8{fill:#f2f2f2;}.cls-11,.cls-9{fill:#fff;}.cls-10{fill:none;stroke:#fff;stroke-miterlimit:10;stroke-width:5px;}.cls-11{opacity:0.52;}</style></defs><g id="self-emplyed"><path class="cls-1" d="M62.81,191.53c61.44-62.18,264.81-111.92,332.84-90,21.35,6.88,47.18,22,62.91,50.47,36.2,65.44-11.69,168-78.27,220.92-82,65.15-181.33,46.43-207.76,40.24-28.44-6.67-115.19-27-137.52-95.1C16.81,262.58,49,205.51,62.81,191.53Z"/><g id="WOMAN"><path class="cls-2" d="M189,150s.81,7.45-6,29c-6,19-15,20-20,38-4,14.28-2,26.24,11,41,30,34,117.63,39.53,150,8,20.29-19.76,22.22-47,23-58,3.64-51.37-32.28-85.57-36-89-27.55-25.38-68.64-37-101-26-5.27,1.79-24.93,10-30,24C176,128,175,141,189,150Z"/><path class="cls-3" d="M295,280c-2.41-6-.83-38.14.17-44,2.85-16.73,10.1-21.51,8-25a4.13,4.13,0,0,0-1.66-1.45c8.27-12.36,21.12-34.31,12.66-56.55-9.51-25-39-32.07-47-34-5.47-1.31-37.31-11.53-57,8C189,148,191,220,208,238c8.27,8.75,15,12,27,13,.52,8.85-1.79,30.55-2,31-7,15-28,13-45,28-.33.29-17,13.06-19,39-.73,9.43,4.69,69.26,19,65,23.52-13.95,72.11-4,111.36-1.16a216.61,216.61,0,0,0,57.48-23.69C361.29,368,363.52,331,348,314,331,295,301,295,295,280Z"/><path class="cls-4" d="M296.42,282.68C285.8,286.07,281.27,289,265,289c-19,0-25-5-31.85-7.94a8.67,8.67,0,0,1-.15.94c-7,15-28,13-45,28-.33.29-17,13.06-19,39-.73,9.43,4.69,69.26,19,65,23.52-13.95,72.11-4,111.36-1.16h0c1.17-.29,2.33-.6,3.5-.92l.12,0c1.16-.32,2.31-.64,3.47-1l.1,0q10.27-3,20.66-7.11l1.06-.42,2.38-1,1.47-.62,2.16-.95L336,400l2-.93,1.85-.87,1.9-.92q1-.48,2-1l1.79-.9,2.14-1.12,1.64-.87,2.44-1.35,1.33-.74c1.26-.72,2.52-1.45,3.77-2.19C361.29,368,363.52,331,348,314,332.08,296.2,304.75,295.08,296.42,282.68Z"/><g id="dots"><circle class="cls-5" cx="227" cy="334" r="4"/><circle class="cls-5" cx="246" cy="357" r="4"/><circle class="cls-5" cx="275" cy="344" r="4"/><circle class="cls-5" cx="201" cy="352" r="4"/><circle class="cls-5" cx="235" cy="301" r="4"/><circle class="cls-5" cx="291" cy="370" r="4"/><circle class="cls-5" cx="203" cy="313" r="4"/><circle class="cls-5" cx="265" cy="316" r="4"/><circle class="cls-5" cx="303" cy="310" r="4"/><circle class="cls-5" cx="314" cy="351" r="4"/><circle class="cls-5" cx="334" cy="375" r="4"/><circle class="cls-5" cx="332" cy="321" r="4"/><circle class="cls-5" cx="217" cy="372" r="4"/></g><path class="cls-6" d="M234.92,259.9a.36.36,0,0,0,.07.1c1.64,2,9.19,1.76,17.32-2,6.56-3,19-11,20.62-16,1.91-5.79-33.62-5-37.94,9C235.1,253.3,235.05,256.47,234.92,259.9Z"/><path id="bang" class="cls-2" d="M219,145s-6,6-11,8c-6.42,2.57-8,2-11,2-5.58,0-9.21-20.79-2-33,12.36-20.93,53.57-14.94,60-14,27.8,4,63.85,20.72,63,39-.53,11.55-15.62,20-24,23-14.05,5-31.07.31-44-4C226,158,219,147,219,145Z"/><path class="cls-2" d="M295,275.11c-4-3.85,2-89.44,2-89.44,9.63-42.8,24.62-46.67,31,1,3.73,27.85-8.19,92.07-27,91.36C299.13,277.92,297.26,277.28,295,275.11Z"/><path id="ear" class="cls-3" d="M284.6,184c.76-2.64,1.68-11.61,4.59-15.6,4.47-6.14,12.85-7.34,18.35-1.83,4.67,4.66,4.52,10.9,2.76,15.6-2.24,6-7,9.89-13.77,11.93C287.35,196.81,282.76,190.39,284.6,184Z"/><path class="cls-3" d="M235,251c6,1,27.5-2,31-3,7-2,17-6,22-8,3.83-1.53-23.36-16.91-42-9-6.8,2.89-17,9.54-16,15C230.53,248.82,233.79,250.8,235,251Z"/></g><path class="cls-7" d="M83.26,378c32.88,22,71.92,31.12,89.27,35.19,25.73,6,120.53,23.9,201.13-35.19Z"/><rect class="cls-8" x="97" y="370" width="145" height="8"/><path class="cls-9" d="M169.6,240H36.66C29.33,262.81,26,290.64,35,318.09,43.72,344.65,62.23,364,83.26,378H169.6A13.4,13.4,0,0,0,183,364.6V253.4A13.4,13.4,0,0,0,169.6,240Z"/><path class="cls-9" d="M314.53,338h51.93a3.53,3.53,0,0,1,3.53,3.53v7A29.5,29.5,0,0,1,340.5,378h0A29.5,29.5,0,0,1,311,348.5v-7A3.53,3.53,0,0,1,314.53,338Z"/><ellipse class="cls-10" cx="370" cy="352.25" rx="9" ry="7.25"/><path class="cls-11" d="M361.65,274.21c-2.64.64,1.18,10.36-4.12,17.09-6.39,8.12-18.18,1.94-25.3,10.09-5.35,6.11-4.26,15.94-2.06,21.65,2.85,7.41,9.33,12.53,10.76,11.63s-4-7.61-1.24-13.22c1.74-3.56,4.24-3,12.74-6,7.52-2.62,9.77-3.7,12.06-5.42,6.52-4.89,6.79-15.76,5.26-22.59S363.92,273.66,361.65,274.21Z"/></g></svg>
